<svg width="36" height="36" viewBox="0 0 36 36" fill="none" xmlns="http://www.w3.org/2000/svg">
<path d="M18 4C25.732 4 32 10.268 32 18C32 25.732 25.732 32 18 32C10.268 32 4 25.732 4 18C4 10.268 10.268 4 18 4ZM18 6.09967C11.4276 6.09967 6.09967 11.4276 6.09967 18C6.09967 24.5724 11.4276 29.9003 18 29.9003C24.5724 29.9003 29.9003 24.5724 29.9003 18C29.9003 11.4276 24.5724 6.09967 18 6.09967ZM18 20.0961C20.2834 20.0961 22.4238 21.0129 23.9925 22.6094C24.3989 23.0229 24.3931 23.6876 23.9795 24.094C23.5659 24.5004 22.9012 24.4945 22.4949 24.081C21.317 22.8822 19.7143 22.1958 18 22.1958C16.2819 22.1958 14.676 22.8853 13.4976 24.0887C13.0919 24.503 12.4272 24.5099 12.013 24.1043C11.5987 23.6986 11.5917 23.0339 11.9974 22.6196C13.5668 21.0169 15.7116 20.0961 18 20.0961ZM13.8013 13.4516C14.7671 13.4516 15.55 14.2345 15.55 15.2003C15.55 16.1661 14.7671 16.9491 13.8013 16.9491C12.8355 16.9491 12.0525 16.1661 12.0525 15.2003C12.0525 14.2345 12.8355 13.4516 13.8013 13.4516ZM22.2 13.4516C23.1658 13.4516 23.9487 14.2345 23.9487 15.2003C23.9487 16.1661 23.1658 16.9491 22.2 16.9491C21.2342 16.9491 20.4512 16.1661 20.4512 15.2003C20.4512 14.2345 21.2342 13.4516 22.2 13.4516Z" fill="#212121"/>
</svg>
