<svg width="36" height="36" viewBox="0 0 36 36" fill="none" xmlns="http://www.w3.org/2000/svg">
<path d="M10.2097 10.3871L10.2929 10.2929C10.6534 9.93241 11.2206 9.90468 11.6129 10.2097L11.7071 10.2929L18 16.585L24.2929 10.2929C24.6834 9.90237 25.3166 9.90237 25.7071 10.2929C26.0976 10.6834 26.0976 11.3166 25.7071 11.7071L19.415 18L25.7071 24.2929C26.0676 24.6534 26.0953 25.2206 25.7903 25.6129L25.7071 25.7071C25.3466 26.0676 24.7794 26.0953 24.3871 25.7903L24.2929 25.7071L18 19.415L11.7071 25.7071C11.3166 26.0976 10.6834 26.0976 10.2929 25.7071C9.90237 25.3166 9.90237 24.6834 10.2929 24.2929L16.585 18L10.2929 11.7071C9.93241 11.3466 9.90468 10.7794 10.2097 10.3871L10.2929 10.2929L10.2097 10.3871Z" fill="#222222"/>
</svg>
