<svg width="117" height="22" viewBox="0 0 117 22" fill="none" xmlns="http://www.w3.org/2000/svg">
<g clip-path="url(#clip0_1987_14055)">
<path d="M5.39955 21.5C3.84424 21.5 2.55305 21.2389 1.49661 20.6878C0.674944 20.2528 0 19.5856 0 18.6285C0 17.5843 0.733634 16.7431 1.90745 16.7431C2.55305 16.7431 3.19865 17.0622 4.19639 17.3232C5.31151 17.6133 6.13318 17.7003 6.72009 17.7003C7.68849 17.7003 8.45147 17.5262 8.8623 17.3522C9.12641 16.9171 9.27314 16.424 9.27314 15.9599C9.27314 14.8287 8.24605 13.8135 5.39955 12.0732C2.87585 10.5359 1.43792 9.4337 1.43792 6.93923C1.43792 3.34254 4.84199 0.5 9.12641 0.5C10.5937 0.5 12.2957 0.790055 13.3228 1.5442C13.9684 2.00829 14.2325 2.64641 14.2325 3.28453C14.2325 4.41575 13.3521 5.25691 12.2664 5.25691C11.5914 5.25691 11.0926 5.02486 10.4763 4.82182C9.71332 4.56077 8.83296 4.32873 7.80587 4.32873C7.13092 4.32873 6.42664 4.47376 6.13318 4.61878C5.89842 4.93785 5.75169 5.45994 5.75169 5.92403C5.75169 7.14227 6.54402 7.8384 8.5395 8.94061C12.0609 10.913 13.4402 12.3923 13.4402 14.7997C13.4402 18.8315 9.65463 21.5 5.39955 21.5Z" fill="white"/>
<path d="M23.2122 14.8577H21.5102L21.0113 19.2086C20.8646 20.5718 19.8962 21.355 18.7224 21.355C17.5485 21.355 16.7562 20.5718 16.9029 19.1796L18.6637 3.98066C18.9278 1.77624 20.1896 0.819061 22.4199 0.819061H25.061C29.6682 0.819061 32.1332 3.37155 32.1332 7.11326C32.1332 11.3191 28.8172 14.8577 23.2122 14.8577ZM24.6501 11.145C25.7359 11.145 26.4402 11.058 26.851 10.884C27.4966 10.0428 27.9075 8.94061 27.9075 7.69337C27.9075 5.80801 26.8804 4.56077 24.7382 4.56077H22.7133L21.921 11.145H24.6501Z" fill="white"/>
<path d="M32.456 17.7873L39.9978 1.39917C40.6434 0.935082 41.6411 0.645027 42.5801 0.645027C44.3702 0.645027 45.0158 1.5732 45.3386 3.1105L48.5959 17.7293C48.7133 18.3094 48.8601 19.0055 48.8601 19.4116C48.8601 20.5428 48.009 21.355 46.7765 21.355C45.6321 21.355 45.0158 20.7459 44.8104 19.4986L44.1354 15.7279H37.5914L35.9774 19.7597C35.5959 20.7169 34.8917 21.355 33.8352 21.355C32.7788 21.355 31.9571 20.6588 31.9571 19.5566C31.9571 18.9765 32.1919 18.3384 32.456 17.7873ZM42.0226 4.73481L39 12.2472H43.4899L42.1106 4.73481H42.0226Z" fill="white"/>
<path d="M63.8555 12.7693L66.0271 18.1064C66.1738 18.4834 66.3205 18.8895 66.3205 19.2956C66.3205 20.4558 65.4108 21.355 64.2077 21.355C63.0925 21.355 62.4763 20.7169 62.1828 19.8467L60.2167 14.1036H57.0474L56.4605 19.2086C56.3138 20.5718 55.3454 21.355 54.1715 21.355C52.9977 21.355 52.2054 20.5718 52.3521 19.2376L54.1715 3.57459C54.4063 1.5732 55.316 0.819061 57.5169 0.819061H60.7742C65.0587 0.819061 67.4356 3.19751 67.4356 6.62017C67.4356 9.14365 66.0858 11.3191 63.8555 12.7693ZM59.8939 10.5649C60.246 10.5649 61.5372 10.5649 62.1535 10.3329C62.7697 9.52072 63.1806 8.3895 63.1806 7.25829C63.1806 5.86602 62.4763 4.56077 60.3928 4.56077H58.1625L57.4582 10.5649H59.8939Z" fill="white"/>
<path d="M72.307 21.355C71.1332 21.355 70.3409 20.5718 70.4876 19.3536L72.395 2.67541C72.5418 1.5442 73.4515 0.645027 74.684 0.645027C75.9165 0.645027 76.6501 1.42818 76.5034 2.70442L75.6817 9.72376C76.8555 9.54972 77.7652 8.9116 78.4989 8.18646C79.526 7.14226 80.2889 6.18508 83.5169 1.92127C84.2799 0.906077 84.8375 0.645027 85.6298 0.645027C86.7156 0.645027 87.4492 1.42818 87.4492 2.44337C87.4492 3.31354 87.009 3.95166 86.3048 4.85083C85.0429 6.38812 83.605 8.04144 81.7269 9.75276C81.3454 10.1008 80.9345 10.4489 80.5237 10.7389L84.7201 17.4102C85.1016 18.0193 85.395 18.5994 85.395 19.2956C85.395 20.4848 84.5147 21.355 83.3115 21.355C82.3138 21.355 81.7562 20.8619 81.1693 19.7597L77.237 12.4213C76.6501 12.6243 76.0045 12.7693 75.3296 12.8564L74.5666 19.3826C74.4492 20.4558 73.5395 21.355 72.307 21.355Z" fill="white"/>
<path d="M112.98 21.1809H106.084C103.795 21.1809 102.826 20.0497 103.032 18.1354L104.704 3.89365C104.91 1.97928 106.142 0.819061 108.431 0.819061H115.151C116.208 0.819061 117 1.42818 117 2.5884C117 3.92265 116.002 4.7058 114.652 4.7058H108.695L108.167 9.20166H113.684C114.887 9.20166 115.445 9.9268 115.445 10.768C115.445 11.7251 114.652 12.8564 113.273 12.8564H107.756L107.228 17.2942H113.479C114.594 17.2942 115.327 17.9613 115.327 19.0635C115.327 20.2818 114.506 21.1809 112.98 21.1809Z" fill="white"/>
<path d="M99.4251 9.87748C98.439 9.87748 97.6907 9.56132 97.1361 8.91159C96.0445 7.62955 95.7481 5.15248 96.3086 1.93287C96.4172 1.31215 95.9946 0.720435 95.3637 0.613114C95.2962 0.601512 95.2316 0.595711 95.167 0.595711C94.6153 0.595711 94.1253 0.987285 94.0284 1.54419C93.1363 6.68397 90.7065 9.87748 87.6869 9.87748C87.0472 9.87748 86.5307 10.388 86.5307 11.0203C86.5307 11.6526 87.0472 12.1631 87.6869 12.1631C88.6729 12.1631 89.4212 12.4793 89.9758 13.129C91.0675 14.411 91.3639 16.8881 90.8034 20.1077C90.6948 20.7284 91.1174 21.3202 91.7483 21.4275C91.8158 21.4391 91.8804 21.4449 91.9449 21.4449C92.4966 21.4449 92.9867 21.0533 93.0835 20.4964C93.9756 15.3566 96.4054 12.1631 99.4251 12.1631C100.065 12.1631 100.581 11.6526 100.581 11.0203C100.581 10.388 100.065 9.87748 99.4251 9.87748Z" fill="white"/>
</g>
<defs>
<clipPath id="clip0_1987_14055">
<rect width="117" height="21" fill="white" transform="translate(0 0.5)"/>
</clipPath>
</defs>
</svg>
